<?xml version="1.0" standalone="no"?><!DOCTYPE svg PUBLIC "-//W3C//DTD SVG 1.1//EN" "http://www.w3.org/Graphics/SVG/1.1/DTD/svg11.dtd"><svg t="1753927654558" class="icon" viewBox="0 0 1024 1024" version="1.1" xmlns="http://www.w3.org/2000/svg" p-id="5729" xmlns:xlink="http://www.w3.org/1999/xlink" width="256" height="256"><path d="M984.5 125.8l-42.7-43.5c-50.7-51.6-133.5-51.6-184.2 0l-19.8 20.3c-18.5 18.8-30.3 42.1-35.2 66.5-11.2-4.7-22.8-9.1-34.8-13-49.8-16.3-102.8-24.7-157.3-24.7s-107.5 8.4-157.4 24.8c-15.6 5.2-30.7 11-45.4 17.5-4.5-29.8-18-58.5-40.4-81.3-56.1-57.2-148-57.2-204 0l-22.8 23.3c-56.1 57.2-56.1 150.8 0 208.1 21.4 21.9 48.1 35.3 75.9 40.5-11.7 30.7-17.5 62.7-17.5 95.4v4c0.3 21.3-3.3 43.5-10.8 65.6-10.9 32.5-16.5 66.2-16.5 100.2 0 50.6 12 99.6 35.7 145.7 22.6 43.8 54.7 83.2 95.5 116.6 40.3 33.1 87.1 59.1 139 77.1 53.4 18.6 110.1 28 168.5 28s115-9.4 168.5-28c52-18.1 98.8-44 139-77.1 40.8-33.6 72.9-72.8 95.5-116.6C937 729.1 949 680.1 949 629.5c0-34.1-5.5-67.8-16.5-100.2-7.5-22.3-11.1-44.3-10.8-65.6v-4c0-31.3-5.4-61.9-16.1-91.4 21.6-5.7 41.9-17.2 58.7-34.3l19.8-20.3c51-51.8 51-136.3 0.4-187.9z m-69.6 502.9c0 183.6-181.1 332.5-404.4 332.5h-0.1c223.3 0 404.4-148.9 404.4-332.5 0-6.9-0.2-13.8-0.8-20.5-12.8 174-188.7 311.7-403.5 311.7-214.7 0-390.2-137.4-403.7-311.1 1.7-23.7 6.4-46.8 13.8-69 8.4-25 13-51.2 12.6-77.5v-3.4c0-161.9 168.9-293.2 377.2-293.2s377.2 131.2 377.2 293.2v3.4c-0.5 26.4 4.2 52.5 12.6 77.5 9.7 28.4 14.7 58.2 14.7 88.9z" fill="#9810fa" p-id="5730"></path><path d="M431 424c-37.9-37.9-114-23.2-170 32.8s-70.7 132.1-32.8 170c37.9 37.9 114 23.2 170-32.8s70.7-132.1 32.8-170z m-97.4 130.5c-22 0-39.9-17.9-39.9-39.9s17.9-39.9 39.9-39.9 39.9 17.9 39.9 39.9c0.1 22-17.8 39.9-39.9 39.9zM587.2 424C549.4 461.9 564 538 620 594s132.1 70.7 170 32.8c37.9-37.9 23.2-114-32.8-170s-132.1-70.7-170-32.8z m134.3 90.7c0 22-17.9 39.9-39.9 39.9s-39.9-17.9-39.9-39.9v-0.1c0-22 17.9-39.9 39.9-39.9 22.1 0 40 17.8 39.9 40 0-0.1 0-0.1 0 0zM547 802.1c-6.3 1.1-12.7-0.6-17.5-4.7-3.3-2.8-5.6-6.4-6.9-10.4 4.6-1.5 8.9-3.9 12.5-7.1l46.2-41.4c20.2-18.1 4.8-47.6-24.9-47.6H464c-29.7 0-45.1 29.5-24.9 47.6l46.2 41.4c3.7 3.2 7.9 5.6 12.5 7.1-1.1 4-3.6 7.7-6.9 10.4-4.9 4.1-11.2 5.7-17.5 4.7l-134-24-4 22.6 134 24c2.6 0.5 5.3 0.7 7.9 0.7 10.3 0 20.4-3.6 28.4-10.3 1.6-1.4 3.1-2.8 4.5-4.4 1.4 1.5 2.9 3 4.5 4.4 8 6.8 18.1 10.3 28.4 10.3 2.6 0 5.3-0.2 7.9-0.7l134-24-4-22.6-134 24z" fill="#9810fa" p-id="5731"></path></svg>